<mxfile host="www.draw.io" modified="2020-02-17T08:54:26.147Z" agent="Mozilla/5.0 (Windows NT 10.0; Win64; x64) AppleWebKit/537.36 (KHTML, like Gecko) Chrome/79.0.3945.130 Safari/537.36" etag="sZxHzC2PbqdpU1_2y3Lg" version="12.7.0" type="github">
  <diagram id="AUSyYx-8ehcyiPEunDD3" name="Page-1">
    <mxGraphModel dx="1422" dy="745" grid="1" gridSize="10" guides="1" tooltips="1" connect="1" arrows="1" fold="1" page="1" pageScale="1" pageWidth="1169" pageHeight="827" math="0" shadow="0">
      <root>
        <mxCell id="0"/>
        <mxCell id="1" parent="0"/>
        <mxCell id="37pzr9wZezaG76wjAJH7-1" value="" style="ellipse;shape=cloud;whiteSpace=wrap;html=1;fillColor=none;fontSize=16;direction=south;strokeWidth=2;strokeColor=#9933FF;" parent="1" vertex="1">
          <mxGeometry x="650" y="208" width="350" height="390" as="geometry"/>
        </mxCell>
        <mxCell id="37pzr9wZezaG76wjAJH7-2" value="&amp;nbsp; &amp;nbsp;Network Address: 172.2.0.0&lt;br&gt;&lt;br style=&quot;font-size: 16px&quot;&gt;Subnet Mask: 255.255.0.0" style="text;html=1;align=center;verticalAlign=middle;resizable=0;points=[];autosize=1;fontSize=16;" parent="1" vertex="1">
          <mxGeometry x="469" y="100" width="230" height="60" as="geometry"/>
        </mxCell>
        <mxCell id="37pzr9wZezaG76wjAJH7-3" value="" style="verticalLabelPosition=bottom;html=1;verticalAlign=top;align=center;strokeColor=none;fillColor=#00CC00;shape=mxgraph.azure.computer;pointerEvents=1;fontSize=16;direction=east;" parent="1" vertex="1">
          <mxGeometry x="737.5" y="400.5" width="50" height="45" as="geometry"/>
        </mxCell>
        <mxCell id="37pzr9wZezaG76wjAJH7-4" value="" style="verticalLabelPosition=bottom;html=1;verticalAlign=top;align=center;strokeColor=none;fillColor=#00CC00;shape=mxgraph.azure.computer;pointerEvents=1;fontSize=16;direction=east;" parent="1" vertex="1">
          <mxGeometry x="737.5" y="488.5" width="50" height="45" as="geometry"/>
        </mxCell>
        <mxCell id="37pzr9wZezaG76wjAJH7-5" value="" style="verticalLabelPosition=bottom;html=1;verticalAlign=top;align=center;strokeColor=none;fillColor=#00CC00;shape=mxgraph.azure.computer;pointerEvents=1;fontSize=16;direction=east;" parent="1" vertex="1">
          <mxGeometry x="737.5" y="305.5" width="50" height="45" as="geometry"/>
        </mxCell>
        <mxCell id="37pzr9wZezaG76wjAJH7-6" value="" style="fontColor=#0066CC;verticalAlign=top;verticalLabelPosition=bottom;labelPosition=center;align=center;html=1;outlineConnect=0;fillColor=#CCCCCC;strokeColor=#6881B3;gradientColor=none;gradientDirection=north;strokeWidth=2;shape=mxgraph.networks.router;direction=south;" parent="1" vertex="1">
          <mxGeometry x="880" y="353" width="30" height="100" as="geometry"/>
        </mxCell>
        <mxCell id="37pzr9wZezaG76wjAJH7-7" value="" style="endArrow=none;html=1;fontSize=16;entryX=0.5;entryY=1;entryDx=0;entryDy=0;entryPerimeter=0;exitX=1;exitY=0.5;exitDx=0;exitDy=0;exitPerimeter=0;" parent="1" source="37pzr9wZezaG76wjAJH7-3" target="37pzr9wZezaG76wjAJH7-6" edge="1">
          <mxGeometry width="50" height="50" relative="1" as="geometry">
            <mxPoint x="460" y="479" as="sourcePoint"/>
            <mxPoint x="160" y="658" as="targetPoint"/>
          </mxGeometry>
        </mxCell>
        <mxCell id="37pzr9wZezaG76wjAJH7-8" value="" style="endArrow=none;html=1;fontSize=16;entryX=0.5;entryY=1;entryDx=0;entryDy=0;entryPerimeter=0;exitX=1;exitY=0.5;exitDx=0;exitDy=0;exitPerimeter=0;" parent="1" source="37pzr9wZezaG76wjAJH7-4" target="37pzr9wZezaG76wjAJH7-6" edge="1">
          <mxGeometry width="50" height="50" relative="1" as="geometry">
            <mxPoint x="745" y="438" as="sourcePoint"/>
            <mxPoint x="835" y="368" as="targetPoint"/>
          </mxGeometry>
        </mxCell>
        <mxCell id="37pzr9wZezaG76wjAJH7-9" value="" style="endArrow=none;html=1;fontSize=16;entryX=0.5;entryY=1;entryDx=0;entryDy=0;entryPerimeter=0;exitX=1;exitY=0.5;exitDx=0;exitDy=0;exitPerimeter=0;" parent="1" source="37pzr9wZezaG76wjAJH7-5" target="37pzr9wZezaG76wjAJH7-6" edge="1">
          <mxGeometry width="50" height="50" relative="1" as="geometry">
            <mxPoint x="755" y="448" as="sourcePoint"/>
            <mxPoint x="845" y="378" as="targetPoint"/>
          </mxGeometry>
        </mxCell>
        <mxCell id="37pzr9wZezaG76wjAJH7-10" value="&lt;span style=&quot;white-space: nowrap&quot;&gt;&lt;font color=&quot;#ff0000&quot;&gt;172.2.&lt;/font&gt;&lt;font color=&quot;#b266ff&quot;&gt;0.0&amp;nbsp; &amp;nbsp; &amp;nbsp; &amp;nbsp;&amp;nbsp;&lt;/font&gt;&lt;/span&gt;&lt;br style=&quot;white-space: nowrap&quot;&gt;&lt;span style=&quot;color: rgb(255 , 0 , 0) ; white-space: nowrap&quot;&gt;172.2.&lt;/span&gt;&lt;span style=&quot;white-space: nowrap&quot;&gt;&lt;font color=&quot;#00cc00&quot;&gt;0.1&amp;nbsp; &amp;nbsp; &amp;nbsp; &amp;nbsp;&amp;nbsp;&lt;/font&gt;&lt;/span&gt;&lt;br style=&quot;white-space: nowrap&quot;&gt;&lt;span style=&quot;color: rgb(255 , 0 , 0) ; white-space: nowrap&quot;&gt;172.2.&lt;/span&gt;&lt;span style=&quot;white-space: nowrap&quot;&gt;&lt;font color=&quot;#00cc00&quot;&gt;0.2&amp;nbsp; &amp;nbsp; &amp;nbsp; &amp;nbsp;&amp;nbsp;&lt;/font&gt;&lt;/span&gt;&lt;br style=&quot;white-space: nowrap&quot;&gt;&lt;span style=&quot;color: rgb(255 , 0 , 0) ; white-space: nowrap&quot;&gt;172.2.&lt;/span&gt;&lt;span style=&quot;white-space: nowrap&quot;&gt;&lt;font color=&quot;#00cc00&quot;&gt;0.3&amp;nbsp; &amp;nbsp; &amp;nbsp; &amp;nbsp;&amp;nbsp;&lt;/font&gt;&lt;/span&gt;&lt;br style=&quot;white-space: nowrap&quot;&gt;&lt;font color=&quot;#00cc00&quot;&gt;.&lt;br&gt;.&lt;/font&gt;&lt;br&gt;&lt;span style=&quot;color: rgb(255 , 0 , 0) ; white-space: nowrap&quot;&gt;172.2.&lt;/span&gt;&lt;span style=&quot;white-space: nowrap&quot;&gt;&lt;font color=&quot;#00cc00&quot;&gt;0.255&amp;nbsp; &amp;nbsp;&amp;nbsp;&lt;/font&gt;&lt;/span&gt;&lt;br style=&quot;white-space: nowrap&quot;&gt;&lt;span style=&quot;color: rgb(255 , 0 , 0) ; white-space: nowrap&quot;&gt;172.2.&lt;/span&gt;&lt;span style=&quot;white-space: nowrap&quot;&gt;&lt;font color=&quot;#00cc00&quot;&gt;1&lt;/font&gt;&lt;/span&gt;&lt;span style=&quot;white-space: nowrap&quot;&gt;&lt;font color=&quot;#00cc00&quot;&gt;.0&amp;nbsp; &amp;nbsp; &amp;nbsp; &amp;nbsp;&amp;nbsp;&lt;/font&gt;&lt;/span&gt;&lt;br style=&quot;white-space: nowrap&quot;&gt;&lt;span style=&quot;color: rgb(255 , 0 , 0) ; white-space: nowrap&quot;&gt;172.2.&lt;/span&gt;&lt;span style=&quot;white-space: nowrap&quot;&gt;&lt;font color=&quot;#00cc00&quot;&gt;1&lt;/font&gt;&lt;/span&gt;&lt;span style=&quot;white-space: nowrap&quot;&gt;&lt;font color=&quot;#00cc00&quot;&gt;.1&amp;nbsp; &amp;nbsp; &amp;nbsp; &amp;nbsp;&amp;nbsp;&lt;/font&gt;&lt;/span&gt;&lt;font color=&quot;#00cc00&quot;&gt;&lt;br&gt;.&lt;br&gt;.&lt;br&gt;&lt;/font&gt;&lt;span style=&quot;color: rgb(255 , 0 , 0) ; white-space: nowrap&quot;&gt;172.2.&lt;/span&gt;&lt;span style=&quot;white-space: nowrap&quot;&gt;&lt;font color=&quot;#00cc00&quot;&gt;255&lt;/font&gt;&lt;/span&gt;&lt;span style=&quot;white-space: nowrap&quot;&gt;&lt;font color=&quot;#00cc00&quot;&gt;.254&lt;/font&gt;&lt;/span&gt;&lt;br style=&quot;white-space: nowrap&quot;&gt;&lt;span style=&quot;color: rgb(255 , 0 , 0) ; white-space: nowrap&quot;&gt;172.2.&lt;/span&gt;&lt;span style=&quot;white-space: nowrap&quot;&gt;255&lt;/span&gt;&lt;span style=&quot;white-space: nowrap&quot;&gt;.255&lt;/span&gt;" style="rounded=0;whiteSpace=wrap;html=1;fillColor=none;fontSize=16;fontStyle=1" parent="1" vertex="1">
          <mxGeometry x="410" y="280.5" width="120" height="249.5" as="geometry"/>
        </mxCell>
        <mxCell id="37pzr9wZezaG76wjAJH7-13" value="" style="endArrow=none;dashed=1;html=1;fontSize=16;strokeColor=#000000;" parent="1" edge="1">
          <mxGeometry width="50" height="50" relative="1" as="geometry">
            <mxPoint x="459" y="613" as="sourcePoint"/>
            <mxPoint x="459" y="213" as="targetPoint"/>
          </mxGeometry>
        </mxCell>
        <mxCell id="37pzr9wZezaG76wjAJH7-14" value="&lt;font color=&quot;#ff0000&quot;&gt;Network &lt;br&gt;portion&lt;/font&gt;" style="text;html=1;align=center;verticalAlign=middle;resizable=0;points=[];autosize=1;fontSize=16;fontStyle=1" parent="1" vertex="1">
          <mxGeometry x="385" y="239" width="80" height="40" as="geometry"/>
        </mxCell>
        <mxCell id="37pzr9wZezaG76wjAJH7-15" value="Host&lt;br&gt;Portion" style="text;html=1;align=center;verticalAlign=middle;resizable=0;points=[];autosize=1;fontSize=16;fontColor=#00CC00;fontStyle=1" parent="1" vertex="1">
          <mxGeometry x="460" y="239" width="70" height="40" as="geometry"/>
        </mxCell>
        <mxCell id="37pzr9wZezaG76wjAJH7-16" value="Network address" style="text;html=1;align=center;verticalAlign=middle;resizable=0;points=[];autosize=1;fontSize=16;fontColor=#B266FF;" parent="1" vertex="1">
          <mxGeometry x="274" y="279" width="140" height="20" as="geometry"/>
        </mxCell>
        <mxCell id="37pzr9wZezaG76wjAJH7-18" value="" style="shape=curlyBracket;whiteSpace=wrap;html=1;rounded=1;strokeColor=#00CC00;strokeWidth=2;fillColor=#00CC00;fontSize=16;fontColor=#000000;" parent="1" vertex="1">
          <mxGeometry x="390" y="300" width="20" height="210" as="geometry"/>
        </mxCell>
        <mxCell id="37pzr9wZezaG76wjAJH7-19" value="Host/End Devices&lt;br&gt;Address" style="text;html=1;align=center;verticalAlign=middle;resizable=0;points=[];autosize=1;fontSize=16;fontColor=#00CC00;" parent="1" vertex="1">
          <mxGeometry x="250" y="381.75" width="140" height="40" as="geometry"/>
        </mxCell>
        <mxCell id="37pzr9wZezaG76wjAJH7-20" value="Broadcast Address" style="text;html=1;align=center;verticalAlign=middle;resizable=0;points=[];autosize=1;fontSize=16;fontColor=#000000;" parent="1" vertex="1">
          <mxGeometry x="260" y="510" width="150" height="20" as="geometry"/>
        </mxCell>
        <mxCell id="37pzr9wZezaG76wjAJH7-21" value="" style="endArrow=classic;html=1;strokeColor=#B266FF;fontSize=16;fontColor=#B266FF;entryX=0.13;entryY=0.77;entryDx=0;entryDy=0;entryPerimeter=0;strokeWidth=2;" parent="1" target="37pzr9wZezaG76wjAJH7-1" edge="1">
          <mxGeometry width="50" height="50" relative="1" as="geometry">
            <mxPoint x="490" y="290" as="sourcePoint"/>
            <mxPoint x="-10" y="638" as="targetPoint"/>
          </mxGeometry>
        </mxCell>
        <mxCell id="37pzr9wZezaG76wjAJH7-22" value="" style="endArrow=classic;html=1;strokeColor=#00CC00;fontSize=16;fontColor=#000000;entryX=0;entryY=0.5;entryDx=0;entryDy=0;entryPerimeter=0;strokeWidth=2;" parent="1" target="37pzr9wZezaG76wjAJH7-5" edge="1">
          <mxGeometry width="50" height="50" relative="1" as="geometry">
            <mxPoint x="490" y="310" as="sourcePoint"/>
            <mxPoint x="620" y="328" as="targetPoint"/>
          </mxGeometry>
        </mxCell>
        <mxCell id="37pzr9wZezaG76wjAJH7-23" value="" style="endArrow=classic;html=1;strokeColor=#00CC00;fontSize=16;fontColor=#000000;entryX=0;entryY=0.5;entryDx=0;entryDy=0;entryPerimeter=0;strokeWidth=2;exitX=0.667;exitY=0.198;exitDx=0;exitDy=0;exitPerimeter=0;" parent="1" target="37pzr9wZezaG76wjAJH7-3" edge="1" source="37pzr9wZezaG76wjAJH7-10">
          <mxGeometry width="50" height="50" relative="1" as="geometry">
            <mxPoint x="460" y="338" as="sourcePoint"/>
            <mxPoint x="747.5" y="338" as="targetPoint"/>
          </mxGeometry>
        </mxCell>
        <mxCell id="37pzr9wZezaG76wjAJH7-24" value="" style="endArrow=classic;html=1;strokeColor=#00CC00;fontSize=16;fontColor=#000000;entryX=0;entryY=0.5;entryDx=0;entryDy=0;entryPerimeter=0;strokeWidth=2;" parent="1" target="37pzr9wZezaG76wjAJH7-4" edge="1">
          <mxGeometry width="50" height="50" relative="1" as="geometry">
            <mxPoint x="490" y="350" as="sourcePoint"/>
            <mxPoint x="757.5" y="348" as="targetPoint"/>
          </mxGeometry>
        </mxCell>
        <mxCell id="37pzr9wZezaG76wjAJH7-25" value="" style="endArrow=classic;html=1;strokeColor=#000000;strokeWidth=1;fontSize=16;fontColor=#B266FF;entryX=0;entryY=0.5;entryDx=0;entryDy=0;entryPerimeter=0;" parent="1" target="37pzr9wZezaG76wjAJH7-4" edge="1">
          <mxGeometry width="50" height="50" relative="1" as="geometry">
            <mxPoint x="520" y="520" as="sourcePoint"/>
            <mxPoint x="570" y="458" as="targetPoint"/>
          </mxGeometry>
        </mxCell>
        <mxCell id="37pzr9wZezaG76wjAJH7-26" value="" style="endArrow=classic;html=1;strokeColor=#000000;fontSize=16;fontColor=#000000;entryX=0;entryY=0.5;entryDx=0;entryDy=0;entryPerimeter=0;" parent="1" target="37pzr9wZezaG76wjAJH7-3" edge="1">
          <mxGeometry width="50" height="50" relative="1" as="geometry">
            <mxPoint x="520" y="520" as="sourcePoint"/>
            <mxPoint x="767.5" y="358" as="targetPoint"/>
          </mxGeometry>
        </mxCell>
        <mxCell id="37pzr9wZezaG76wjAJH7-27" value="" style="endArrow=classic;html=1;strokeColor=#000000;fontSize=16;fontColor=#000000;entryX=0;entryY=0.5;entryDx=0;entryDy=0;entryPerimeter=0;" parent="1" target="37pzr9wZezaG76wjAJH7-5" edge="1">
          <mxGeometry width="50" height="50" relative="1" as="geometry">
            <mxPoint x="520" y="520" as="sourcePoint"/>
            <mxPoint x="777.5" y="368" as="targetPoint"/>
          </mxGeometry>
        </mxCell>
        <mxCell id="37pzr9wZezaG76wjAJH7-28" value="IPv4 Class B example" style="text;html=1;align=center;verticalAlign=middle;resizable=0;points=[];autosize=1;fontSize=30;fontColor=#000000;fontStyle=1" parent="1" vertex="1">
          <mxGeometry x="424" y="20" width="320" height="40" as="geometry"/>
        </mxCell>
        <mxCell id="37pzr9wZezaG76wjAJH7-29" value="Local Area Network" style="whiteSpace=wrap;html=1;shape=partialRectangle;top=0;left=0;bottom=1;right=0;points=[[0,1],[1,1]];strokeColor=#000000;fillColor=none;align=center;verticalAlign=bottom;routingCenterY=0.5;snapToPoint=1;container=1;recursiveResize=0;autosize=1;treeFolding=1;treeMoving=1;fontSize=16;fontColor=#000000;" parent="1" vertex="1">
          <mxGeometry x="975" y="208" width="170" height="20" as="geometry"/>
        </mxCell>
        <mxCell id="37pzr9wZezaG76wjAJH7-30" value="" style="edgeStyle=entityRelationEdgeStyle;startArrow=none;endArrow=none;segment=10;curved=1;strokeColor=#000000;strokeWidth=1;fontSize=30;fontColor=#000000;dashed=1;exitX=0.25;exitY=0.25;exitDx=0;exitDy=0;exitPerimeter=0;" parent="1" source="37pzr9wZezaG76wjAJH7-1" target="37pzr9wZezaG76wjAJH7-29" edge="1">
          <mxGeometry relative="1" as="geometry">
            <mxPoint x="980" y="239" as="sourcePoint"/>
          </mxGeometry>
        </mxCell>
        <mxCell id="37pzr9wZezaG76wjAJH7-31" value="" style="endArrow=none;dashed=1;html=1;strokeColor=#000000;strokeWidth=1;fontSize=16;fontColor=#000000;entryX=0.271;entryY=1.033;entryDx=0;entryDy=0;entryPerimeter=0;" parent="1" target="37pzr9wZezaG76wjAJH7-2" edge="1">
          <mxGeometry width="50" height="50" relative="1" as="geometry">
            <mxPoint x="460" y="210" as="sourcePoint"/>
            <mxPoint x="554" y="170" as="targetPoint"/>
          </mxGeometry>
        </mxCell>
        <mxCell id="37pzr9wZezaG76wjAJH7-32" value="2 octets for the network and 2 octets for the host" style="whiteSpace=wrap;html=1;shape=partialRectangle;top=0;left=0;bottom=1;right=0;points=[[0,1],[1,1]];strokeColor=#000000;fillColor=none;align=center;verticalAlign=bottom;routingCenterY=0.5;snapToPoint=1;container=1;recursiveResize=0;autosize=1;treeFolding=1;treeMoving=1;fontSize=16;fontColor=#000000;" parent="1" vertex="1">
          <mxGeometry x="160" y="150" width="200" height="20" as="geometry"/>
        </mxCell>
        <mxCell id="37pzr9wZezaG76wjAJH7-33" value="" style="startArrow=none;endArrow=none;segment=10;strokeColor=#000000;strokeWidth=1;fontSize=30;fontColor=#000000;dashed=1;" parent="1" target="37pzr9wZezaG76wjAJH7-32" edge="1">
          <mxGeometry relative="1" as="geometry">
            <mxPoint x="490" y="150" as="sourcePoint"/>
          </mxGeometry>
        </mxCell>
        <mxCell id="37pzr9wZezaG76wjAJH7-35" value="Represents the LAN" style="whiteSpace=wrap;html=1;shape=partialRectangle;top=0;left=0;bottom=1;right=0;points=[[0,1],[1,1]];strokeColor=#000000;fillColor=none;align=center;verticalAlign=bottom;routingCenterY=0.5;snapToPoint=1;container=1;recursiveResize=0;autosize=1;treeFolding=1;treeMoving=1;fontSize=16;fontColor=#000000;" parent="1" vertex="1">
          <mxGeometry x="10" y="305.5" width="180" height="20" as="geometry"/>
        </mxCell>
        <mxCell id="37pzr9wZezaG76wjAJH7-36" value="" style="startArrow=none;endArrow=none;segment=10;strokeColor=#000000;strokeWidth=1;fontSize=30;fontColor=#000000;dashed=1;" parent="1" target="37pzr9wZezaG76wjAJH7-35" edge="1">
          <mxGeometry relative="1" as="geometry">
            <mxPoint x="280" y="290" as="sourcePoint"/>
          </mxGeometry>
        </mxCell>
        <mxCell id="37pzr9wZezaG76wjAJH7-37" value="Reserved for the end devices" style="whiteSpace=wrap;html=1;shape=partialRectangle;top=0;left=0;bottom=1;right=0;points=[[0,1],[1,1]];strokeColor=#000000;fillColor=none;align=center;verticalAlign=bottom;routingCenterY=0.5;snapToPoint=1;container=1;recursiveResize=0;autosize=1;treeFolding=1;treeMoving=1;fontSize=16;fontColor=#000000;" parent="1" vertex="1">
          <mxGeometry x="20" y="413" width="150" height="20" as="geometry"/>
        </mxCell>
        <mxCell id="37pzr9wZezaG76wjAJH7-38" value="" style="startArrow=none;endArrow=none;segment=10;strokeColor=#000000;strokeWidth=1;fontSize=30;fontColor=#000000;dashed=1;exitX=0.014;exitY=0.725;exitDx=0;exitDy=0;exitPerimeter=0;" parent="1" source="37pzr9wZezaG76wjAJH7-19" target="37pzr9wZezaG76wjAJH7-37" edge="1">
          <mxGeometry relative="1" as="geometry">
            <mxPoint x="430" y="440" as="sourcePoint"/>
          </mxGeometry>
        </mxCell>
        <mxCell id="37pzr9wZezaG76wjAJH7-39" value="Reserved for broadcasting. Any end device can use this IP to broadcast to every other end device in the network" style="whiteSpace=wrap;html=1;shape=partialRectangle;top=0;left=0;bottom=1;right=0;points=[[0,1],[1,1]];strokeColor=#000000;fillColor=none;align=center;verticalAlign=bottom;routingCenterY=0.5;snapToPoint=1;container=1;recursiveResize=0;autosize=1;treeFolding=1;treeMoving=1;fontSize=16;fontColor=#000000;" parent="1" vertex="1">
          <mxGeometry x="24" y="660" width="296" height="20" as="geometry"/>
        </mxCell>
        <mxCell id="37pzr9wZezaG76wjAJH7-40" value="" style="startArrow=none;endArrow=none;segment=10;strokeColor=#000000;strokeWidth=1;fontSize=30;fontColor=#000000;dashed=1;" parent="1" edge="1">
          <mxGeometry relative="1" as="geometry">
            <mxPoint x="266" y="520" as="sourcePoint"/>
            <mxPoint x="172" y="620" as="targetPoint"/>
          </mxGeometry>
        </mxCell>
      </root>
    </mxGraphModel>
  </diagram>
</mxfile>
